<?xml version="1.0" encoding="UTF-8" standalone="no"?>
<!DOCTYPE svg PUBLIC "-//W3C//DTD SVG 1.1//EN"
 "http://www.w3.org/Graphics/SVG/1.1/DTD/svg11.dtd">
<!-- Generated by graphviz version 2.48.0 (0)
 -->
<!-- Title: abc Pages: 1 -->
<svg width="864pt" height="1008pt"
 viewBox="0.00 0.00 863.94 1008.00" xmlns="http://www.w3.org/2000/svg" xmlns:xlink="http://www.w3.org/1999/xlink">
<g id="graph0" class="graph" transform="scale(1 1) rotate(0) translate(4 1004)">
<title>abc</title>
<polygon fill="white" stroke="transparent" points="-4,4 -4,-1004 859.94,-1004 859.94,4 -4,4"/>
<!-- Container -->
<g id="node1" class="node">
<title>Container</title>
<ellipse fill="none" stroke="black" cx="162.09" cy="-207" rx="45.49" ry="18"/>
<text text-anchor="middle" x="162.09" y="-203.3" font-family="Times,serif" font-size="14.00">Container</text>
</g>
<!-- Hashable -->
<g id="node2" class="node">
<title>Hashable</title>
<ellipse fill="none" stroke="black" cx="609.36" cy="-557" rx="43.59" ry="18"/>
<text text-anchor="middle" x="609.36" y="-553.3" font-family="Times,serif" font-size="14.00">Hashable</text>
</g>
<!-- Iterable -->
<g id="node3" class="node">
<title>Iterable</title>
<ellipse fill="none" stroke="black" cx="162.09" cy="-412" rx="37.89" ry="18"/>
<text text-anchor="middle" x="162.09" y="-408.3" font-family="Times,serif" font-size="14.00">Iterable</text>
</g>
<!-- Iterator -->
<g id="node4" class="node">
<title>Iterator</title>
<ellipse fill="none" stroke="black" cx="291.68" cy="-466" rx="36.29" ry="18"/>
<text text-anchor="middle" x="291.68" y="-462.3" font-family="Times,serif" font-size="14.00">Iterator</text>
</g>
<!-- Iterator&#45;&gt;Iterable -->
<g id="edge1" class="edge">
<title>Iterator&#45;&gt;Iterable</title>
<path fill="none" stroke="black" d="M263.31,-454.42C244.85,-446.6 220.27,-436.2 200.08,-427.66"/>
<polygon fill="black" stroke="black" points="201.43,-424.43 190.86,-423.75 198.7,-430.87 201.43,-424.43"/>
</g>
<!-- Reversible -->
<g id="node5" class="node">
<title>Reversible</title>
<ellipse fill="none" stroke="black" cx="291.68" cy="-412" rx="48.19" ry="18"/>
<text text-anchor="middle" x="291.68" y="-408.3" font-family="Times,serif" font-size="14.00">Reversible</text>
</g>
<!-- Reversible&#45;&gt;Iterable -->
<g id="edge2" class="edge">
<title>Reversible&#45;&gt;Iterable</title>
<path fill="none" stroke="black" d="M243.53,-412C232.67,-412 221.11,-412 210.24,-412"/>
<polygon fill="black" stroke="black" points="210.08,-408.5 200.08,-412 210.08,-415.5 210.08,-408.5"/>
</g>
<!-- Generator -->
<g id="node6" class="node">
<title>Generator</title>
<ellipse fill="none" stroke="black" cx="437.52" cy="-466" rx="46.29" ry="18"/>
<text text-anchor="middle" x="437.52" y="-462.3" font-family="Times,serif" font-size="14.00">Generator</text>
</g>
<!-- Generator&#45;&gt;Iterator -->
<g id="edge3" class="edge">
<title>Generator&#45;&gt;Iterator</title>
<path fill="none" stroke="black" d="M391.01,-466C374.24,-466 355.25,-466 338.46,-466"/>
<polygon fill="black" stroke="black" points="338.33,-462.5 328.33,-466 338.33,-469.5 338.33,-462.5"/>
</g>
<!-- Sized -->
<g id="node7" class="node">
<title>Sized</title>
<ellipse fill="none" stroke="black" cx="162.09" cy="-143" rx="30.59" ry="18"/>
<text text-anchor="middle" x="162.09" y="-139.3" font-family="Times,serif" font-size="14.00">Sized</text>
</g>
<!-- Callable -->
<g id="node8" class="node">
<title>Callable</title>
<ellipse fill="none" stroke="black" cx="787.7" cy="-874" rx="40.09" ry="18"/>
<text text-anchor="middle" x="787.7" y="-870.3" font-family="Times,serif" font-size="14.00">Callable</text>
</g>
<!-- Collection -->
<g id="node9" class="node">
<title>Collection</title>
<ellipse fill="none" stroke="black" cx="291.68" cy="-207" rx="47.39" ry="18"/>
<text text-anchor="middle" x="291.68" y="-203.3" font-family="Times,serif" font-size="14.00">Collection</text>
</g>
<!-- Collection&#45;&gt;Container -->
<g id="edge6" class="edge">
<title>Collection&#45;&gt;Container</title>
<path fill="none" stroke="black" d="M243.89,-207C235.41,-207 226.49,-207 217.8,-207"/>
<polygon fill="black" stroke="black" points="217.75,-203.5 207.74,-207 217.74,-210.5 217.75,-203.5"/>
</g>
<!-- Collection&#45;&gt;Iterable -->
<g id="edge5" class="edge">
<title>Collection&#45;&gt;Iterable</title>
<path fill="none" stroke="black" d="M279.8,-224.48C257.29,-260.65 205.49,-343.87 179.13,-386.23"/>
<polygon fill="black" stroke="black" points="176.07,-384.52 173.76,-394.86 182.02,-388.21 176.07,-384.52"/>
</g>
<!-- Collection&#45;&gt;Sized -->
<g id="edge4" class="edge">
<title>Collection&#45;&gt;Sized</title>
<path fill="none" stroke="black" d="M262.36,-192.8C242.37,-182.77 215.57,-169.32 194.85,-158.93"/>
<polygon fill="black" stroke="black" points="196.31,-155.75 185.8,-154.39 193.17,-162.01 196.31,-155.75"/>
</g>
<!-- Sequence -->
<g id="node10" class="node">
<title>Sequence</title>
<ellipse fill="none" stroke="black" cx="437.52" cy="-412" rx="44.39" ry="18"/>
<text text-anchor="middle" x="437.52" y="-408.3" font-family="Times,serif" font-size="14.00">Sequence</text>
</g>
<!-- Sequence&#45;&gt;Reversible -->
<g id="edge7" class="edge">
<title>Sequence&#45;&gt;Reversible</title>
<path fill="none" stroke="black" d="M392.97,-412C379.47,-412 364.37,-412 350.07,-412"/>
<polygon fill="black" stroke="black" points="349.84,-408.5 339.84,-412 349.84,-415.5 349.84,-408.5"/>
</g>
<!-- Sequence&#45;&gt;Collection -->
<g id="edge8" class="edge">
<title>Sequence&#45;&gt;Collection</title>
<path fill="none" stroke="black" d="M424.26,-394.52C398.89,-358.36 340.53,-275.19 310.8,-232.82"/>
<polygon fill="black" stroke="black" points="313.52,-230.61 304.91,-224.43 307.79,-234.63 313.52,-230.61"/>
</g>
<!-- MutableSequnece -->
<g id="node11" class="node">
<title>MutableSequnece</title>
<ellipse fill="none" stroke="black" cx="609.36" cy="-334" rx="74.19" ry="18"/>
<text text-anchor="middle" x="609.36" y="-330.3" font-family="Times,serif" font-size="14.00">MutableSequnece</text>
</g>
<!-- MutableSequnece&#45;&gt;Sequence -->
<g id="edge9" class="edge">
<title>MutableSequnece&#45;&gt;Sequence</title>
<path fill="none" stroke="black" d="M565.85,-348.63C555.72,-352.41 545.03,-356.65 535.27,-361 514.05,-370.46 491.02,-382.53 472.75,-392.54"/>
<polygon fill="black" stroke="black" points="470.99,-389.52 463.93,-397.43 474.38,-395.65 470.99,-389.52"/>
</g>
<!-- ByteString -->
<g id="node12" class="node">
<title>ByteString</title>
<ellipse fill="none" stroke="black" cx="609.36" cy="-388" rx="48.99" ry="18"/>
<text text-anchor="middle" x="609.36" y="-384.3" font-family="Times,serif" font-size="14.00">ByteString</text>
</g>
<!-- ByteString&#45;&gt;Sequence -->
<g id="edge10" class="edge">
<title>ByteString&#45;&gt;Sequence</title>
<path fill="none" stroke="black" d="M563.29,-394.37C540.61,-397.57 513.01,-401.47 489.55,-404.79"/>
<polygon fill="black" stroke="black" points="488.85,-401.35 479.44,-406.22 489.83,-408.28 488.85,-401.35"/>
</g>
<!-- Set -->
<g id="node13" class="node">
<title>Set</title>
<ellipse fill="none" stroke="black" cx="437.52" cy="-180" rx="27" ry="18"/>
<text text-anchor="middle" x="437.52" y="-176.3" font-family="Times,serif" font-size="14.00">Set</text>
</g>
<!-- Set&#45;&gt;Collection -->
<g id="edge11" class="edge">
<title>Set&#45;&gt;Collection</title>
<path fill="none" stroke="black" d="M411.14,-184.76C392.66,-188.23 367,-193.05 344.29,-197.31"/>
<polygon fill="black" stroke="black" points="343.61,-193.88 334.43,-199.16 344.9,-200.76 343.61,-193.88"/>
</g>
<!-- MutableSet -->
<g id="node14" class="node">
<title>MutableSet</title>
<ellipse fill="none" stroke="black" cx="609.36" cy="-180" rx="51.99" ry="18"/>
<text text-anchor="middle" x="609.36" y="-176.3" font-family="Times,serif" font-size="14.00">MutableSet</text>
</g>
<!-- MutableSet&#45;&gt;Set -->
<g id="edge12" class="edge">
<title>MutableSet&#45;&gt;Set</title>
<path fill="none" stroke="black" d="M556.94,-180C530.41,-180 498.67,-180 474.74,-180"/>
<polygon fill="black" stroke="black" points="474.67,-176.5 464.67,-180 474.67,-183.5 474.67,-176.5"/>
</g>
<!-- Mapping -->
<g id="node15" class="node">
<title>Mapping</title>
<ellipse fill="none" stroke="black" cx="437.52" cy="-253" rx="42.79" ry="18"/>
<text text-anchor="middle" x="437.52" y="-249.3" font-family="Times,serif" font-size="14.00">Mapping</text>
</g>
<!-- Mapping&#45;&gt;Collection -->
<g id="edge13" class="edge">
<title>Mapping&#45;&gt;Collection</title>
<path fill="none" stroke="black" d="M402.8,-242.22C383.51,-236.05 359.07,-228.23 338.11,-221.53"/>
<polygon fill="black" stroke="black" points="339.04,-218.15 328.45,-218.44 336.91,-224.82 339.04,-218.15"/>
</g>
<!-- MutableMapping -->
<g id="node16" class="node">
<title>MutableMapping</title>
<ellipse fill="none" stroke="black" cx="609.36" cy="-272" rx="72.59" ry="18"/>
<text text-anchor="middle" x="609.36" y="-268.3" font-family="Times,serif" font-size="14.00">MutableMapping</text>
</g>
<!-- MutableMapping&#45;&gt;Mapping -->
<g id="edge14" class="edge">
<title>MutableMapping&#45;&gt;Mapping</title>
<path fill="none" stroke="black" d="M542.69,-264.65C525.07,-262.68 506.28,-260.58 489.58,-258.71"/>
<polygon fill="black" stroke="black" points="489.8,-255.22 479.47,-257.58 489.02,-262.17 489.8,-255.22"/>
</g>
<!-- MappingView -->
<g id="node17" class="node">
<title>MappingView</title>
<ellipse fill="none" stroke="black" cx="437.52" cy="-111" rx="61.99" ry="18"/>
<text text-anchor="middle" x="437.52" y="-107.3" font-family="Times,serif" font-size="14.00">MappingView</text>
</g>
<!-- MappingView&#45;&gt;Sized -->
<g id="edge15" class="edge">
<title>MappingView&#45;&gt;Sized</title>
<path fill="none" stroke="black" d="M379.87,-117.63C326.78,-123.84 248.84,-132.96 202.31,-138.41"/>
<polygon fill="black" stroke="black" points="201.84,-134.94 192.32,-139.58 202.66,-141.89 201.84,-134.94"/>
</g>
<!-- ItemsView -->
<g id="node18" class="node">
<title>ItemsView</title>
<ellipse fill="none" stroke="black" cx="609.36" cy="-126" rx="49.29" ry="18"/>
<text text-anchor="middle" x="609.36" y="-122.3" font-family="Times,serif" font-size="14.00">ItemsView</text>
</g>
<!-- ItemsView&#45;&gt;Set -->
<g id="edge17" class="edge">
<title>ItemsView&#45;&gt;Set</title>
<path fill="none" stroke="black" d="M571.51,-137.72C541.83,-147.15 500.49,-160.3 471.81,-169.42"/>
<polygon fill="black" stroke="black" points="470.7,-166.1 462.23,-172.46 472.82,-172.77 470.7,-166.1"/>
</g>
<!-- ItemsView&#45;&gt;MappingView -->
<g id="edge16" class="edge">
<title>ItemsView&#45;&gt;MappingView</title>
<path fill="none" stroke="black" d="M561.05,-121.82C544.24,-120.34 524.96,-118.63 506.75,-117.03"/>
<polygon fill="black" stroke="black" points="507.04,-113.54 496.77,-116.14 506.42,-120.51 507.04,-113.54"/>
</g>
<!-- KeysView -->
<g id="node19" class="node">
<title>KeysView</title>
<ellipse fill="none" stroke="black" cx="609.36" cy="-72" rx="47.39" ry="18"/>
<text text-anchor="middle" x="609.36" y="-68.3" font-family="Times,serif" font-size="14.00">KeysView</text>
</g>
<!-- KeysView&#45;&gt;Set -->
<g id="edge19" class="edge">
<title>KeysView&#45;&gt;Set</title>
<path fill="none" stroke="black" d="M570.29,-82.26C558.5,-86.41 545.83,-91.93 535.27,-99 515.66,-112.12 517.07,-122.53 499.27,-138 489.13,-146.8 477.13,-155.43 466.48,-162.55"/>
<polygon fill="black" stroke="black" points="464.37,-159.75 457.92,-168.15 468.21,-165.6 464.37,-159.75"/>
</g>
<!-- KeysView&#45;&gt;MappingView -->
<g id="edge18" class="edge">
<title>KeysView&#45;&gt;MappingView</title>
<path fill="none" stroke="black" d="M568.11,-81.24C546.74,-86.15 520.09,-92.27 496.52,-97.68"/>
<polygon fill="black" stroke="black" points="495.6,-94.3 486.64,-99.95 497.17,-101.12 495.6,-94.3"/>
</g>
<!-- ValuesView -->
<g id="node20" class="node">
<title>ValuesView</title>
<ellipse fill="none" stroke="black" cx="609.36" cy="-18" rx="52.79" ry="18"/>
<text text-anchor="middle" x="609.36" y="-14.3" font-family="Times,serif" font-size="14.00">ValuesView</text>
</g>
<!-- ValuesView&#45;&gt;Collection -->
<g id="edge21" class="edge">
<title>ValuesView&#45;&gt;Collection</title>
<path fill="none" stroke="black" d="M557.72,-22.27C507.43,-28.68 430.18,-44.62 375.78,-84 341.79,-108.6 317.42,-151.66 304.19,-179.75"/>
<polygon fill="black" stroke="black" points="300.93,-178.45 299.97,-189 307.3,-181.35 300.93,-178.45"/>
</g>
<!-- ValuesView&#45;&gt;MappingView -->
<g id="edge20" class="edge">
<title>ValuesView&#45;&gt;MappingView</title>
<path fill="none" stroke="black" d="M570.04,-30.16C558.6,-34.31 546.21,-39.36 535.27,-45 511.45,-57.29 486.51,-74.42 467.92,-88.15"/>
<polygon fill="black" stroke="black" points="465.76,-85.39 459.85,-94.19 469.95,-91 465.76,-85.39"/>
</g>
<!-- Awaitable -->
<g id="node21" class="node">
<title>Awaitable</title>
<ellipse fill="none" stroke="black" cx="609.36" cy="-928" rx="46.29" ry="18"/>
<text text-anchor="middle" x="609.36" y="-924.3" font-family="Times,serif" font-size="14.00">Awaitable</text>
</g>
<!-- Coroutine -->
<g id="node22" class="node">
<title>Coroutine</title>
<ellipse fill="none" stroke="black" cx="787.7" cy="-928" rx="46.29" ry="18"/>
<text text-anchor="middle" x="787.7" y="-924.3" font-family="Times,serif" font-size="14.00">Coroutine</text>
</g>
<!-- Coroutine&#45;&gt;Awaitable -->
<g id="edge22" class="edge">
<title>Coroutine&#45;&gt;Awaitable</title>
<path fill="none" stroke="black" d="M741.28,-928C718.25,-928 690.07,-928 665.77,-928"/>
<polygon fill="black" stroke="black" points="665.62,-924.5 655.62,-928 665.62,-931.5 665.62,-924.5"/>
</g>
<!-- AsyncIterable -->
<g id="node23" class="node">
<title>AsyncIterable</title>
<ellipse fill="none" stroke="black" cx="437.52" cy="-982" rx="59.59" ry="18"/>
<text text-anchor="middle" x="437.52" y="-978.3" font-family="Times,serif" font-size="14.00">AsyncIterable</text>
</g>
<!-- AsyncIterator -->
<g id="node24" class="node">
<title>AsyncIterator</title>
<ellipse fill="none" stroke="black" cx="609.36" cy="-982" rx="59.29" ry="18"/>
<text text-anchor="middle" x="609.36" y="-978.3" font-family="Times,serif" font-size="14.00">AsyncIterator</text>
</g>
<!-- AsyncIterator&#45;&gt;AsyncIterable -->
<g id="edge23" class="edge">
<title>AsyncIterator&#45;&gt;AsyncIterable</title>
<path fill="none" stroke="black" d="M549.91,-982C536.24,-982 521.56,-982 507.48,-982"/>
<polygon fill="black" stroke="black" points="507.37,-978.5 497.37,-982 507.37,-985.5 507.37,-978.5"/>
</g>
<!-- AsyncGenerator -->
<g id="node25" class="node">
<title>AsyncGenerator</title>
<ellipse fill="none" stroke="black" cx="787.7" cy="-982" rx="68.49" ry="18"/>
<text text-anchor="middle" x="787.7" y="-978.3" font-family="Times,serif" font-size="14.00">AsyncGenerator</text>
</g>
<!-- AsyncGenerator&#45;&gt;AsyncIterator -->
<g id="edge24" class="edge">
<title>AsyncGenerator&#45;&gt;AsyncIterator</title>
<path fill="none" stroke="black" d="M719.28,-982C705.95,-982 691.95,-982 678.6,-982"/>
<polygon fill="black" stroke="black" points="678.54,-978.5 668.54,-982 678.54,-985.5 678.54,-978.5"/>
</g>
<!-- Number -->
<g id="node26" class="node">
<title>Number</title>
<ellipse fill="none" stroke="black" cx="40.3" cy="-694" rx="40.09" ry="18"/>
<text text-anchor="middle" x="40.3" y="-690.3" font-family="Times,serif" font-size="14.00">Number</text>
</g>
<!-- Complex -->
<g id="node27" class="node">
<title>Complex</title>
<ellipse fill="none" stroke="black" cx="162.09" cy="-694" rx="43.59" ry="18"/>
<text text-anchor="middle" x="162.09" y="-690.3" font-family="Times,serif" font-size="14.00">Complex</text>
</g>
<!-- Complex&#45;&gt;Number -->
<g id="edge25" class="edge">
<title>Complex&#45;&gt;Number</title>
<path fill="none" stroke="black" d="M118.52,-694C109.62,-694 100.17,-694 91.05,-694"/>
<polygon fill="black" stroke="black" points="90.93,-690.5 80.93,-694 90.93,-697.5 90.93,-690.5"/>
</g>
<!-- Real -->
<g id="node28" class="node">
<title>Real</title>
<ellipse fill="none" stroke="black" cx="291.68" cy="-727" rx="27" ry="18"/>
<text text-anchor="middle" x="291.68" y="-723.3" font-family="Times,serif" font-size="14.00">Real</text>
</g>
<!-- Real&#45;&gt;Complex -->
<g id="edge26" class="edge">
<title>Real&#45;&gt;Complex</title>
<path fill="none" stroke="black" d="M266.08,-720.64C250.05,-716.49 228.62,-710.95 209.46,-705.99"/>
<polygon fill="black" stroke="black" points="210.25,-702.58 199.69,-703.47 208.5,-709.36 210.25,-702.58"/>
</g>
<!-- Rational -->
<g id="node29" class="node">
<title>Rational</title>
<ellipse fill="none" stroke="black" cx="437.52" cy="-727" rx="40.09" ry="18"/>
<text text-anchor="middle" x="437.52" y="-723.3" font-family="Times,serif" font-size="14.00">Rational</text>
</g>
<!-- Rational&#45;&gt;Real -->
<g id="edge27" class="edge">
<title>Rational&#45;&gt;Real</title>
<path fill="none" stroke="black" d="M397.22,-727C375.87,-727 349.66,-727 328.82,-727"/>
<polygon fill="black" stroke="black" points="328.77,-723.5 318.77,-727 328.77,-730.5 328.77,-723.5"/>
</g>
<!-- Integral -->
<g id="node30" class="node">
<title>Integral</title>
<ellipse fill="none" stroke="black" cx="609.36" cy="-727" rx="38.19" ry="18"/>
<text text-anchor="middle" x="609.36" y="-723.3" font-family="Times,serif" font-size="14.00">Integral</text>
</g>
<!-- Integral&#45;&gt;Rational -->
<g id="edge28" class="edge">
<title>Integral&#45;&gt;Rational</title>
<path fill="none" stroke="black" d="M570.67,-727C546.34,-727 514.42,-727 488.06,-727"/>
<polygon fill="black" stroke="black" points="487.88,-723.5 477.88,-727 487.88,-730.5 487.88,-723.5"/>
</g>
<!-- int -->
<g id="node31" class="node">
<title>int</title>
<polygon fill="none" stroke="black" points="814.7,-730 760.7,-730 760.7,-694 814.7,-694 814.7,-730"/>
<text text-anchor="middle" x="787.7" y="-708.3" font-family="Times,serif" font-size="14.00">int</text>
</g>
<!-- int&#45;&gt;Hashable -->
<g id="edge29" class="edge">
<title>int&#45;&gt;Hashable</title>
<path fill="none" stroke="black" d="M760.63,-704.81C747.51,-700.4 731.81,-693.89 719.45,-685 680.31,-656.85 646.27,-611.76 627.04,-583.29"/>
<polygon fill="black" stroke="black" points="629.77,-581.08 621.33,-574.68 623.94,-584.95 629.77,-581.08"/>
</g>
<!-- int&#45;&gt;Integral -->
<g id="edge30" class="edge">
<title>int&#45;&gt;Integral</title>
<path fill="none" stroke="black" d="M760.68,-714.21C733.62,-716.51 690.67,-720.17 657.6,-722.98"/>
<polygon fill="black" stroke="black" points="656.91,-719.53 647.24,-723.86 657.5,-726.5 656.91,-719.53"/>
</g>
<!-- float -->
<g id="node32" class="node">
<title>float</title>
<polygon fill="none" stroke="black" points="814.7,-838 760.7,-838 760.7,-802 814.7,-802 814.7,-838"/>
<text text-anchor="middle" x="787.7" y="-816.3" font-family="Times,serif" font-size="14.00">float</text>
</g>
<!-- float&#45;&gt;Hashable -->
<g id="edge31" class="edge">
<title>float&#45;&gt;Hashable</title>
<path fill="none" stroke="black" d="M760.57,-814.81C746.79,-810.89 730.5,-804.19 719.45,-793 688.31,-761.46 701.56,-740.45 683.45,-700 664.93,-658.62 640.44,-612.11 625.05,-583.68"/>
<polygon fill="black" stroke="black" points="628.05,-581.88 620.19,-574.77 621.9,-585.23 628.05,-581.88"/>
</g>
<!-- float&#45;&gt;Real -->
<g id="edge32" class="edge">
<title>float&#45;&gt;Real</title>
<path fill="none" stroke="black" d="M760.46,-817.22C694.93,-809.95 519.07,-788.57 375.78,-754 358.84,-749.91 340.38,-744.06 325.17,-738.85"/>
<polygon fill="black" stroke="black" points="326.28,-735.53 315.69,-735.54 323.97,-742.14 326.28,-735.53"/>
</g>
<!-- bool -->
<g id="node33" class="node">
<title>bool</title>
<polygon fill="none" stroke="black" points="814.7,-784 760.7,-784 760.7,-748 814.7,-748 814.7,-784"/>
<text text-anchor="middle" x="787.7" y="-762.3" font-family="Times,serif" font-size="14.00">bool</text>
</g>
<!-- bool&#45;&gt;Hashable -->
<g id="edge33" class="edge">
<title>bool&#45;&gt;Hashable</title>
<path fill="none" stroke="black" d="M760.64,-759.84C747.21,-755.67 731.22,-749.04 719.45,-739 693.08,-716.5 646.53,-628.73 623.72,-583.81"/>
<polygon fill="black" stroke="black" points="626.73,-582 619.09,-574.65 620.48,-585.16 626.73,-582"/>
</g>
<!-- bool&#45;&gt;Integral -->
<g id="edge34" class="edge">
<title>bool&#45;&gt;Integral</title>
<path fill="none" stroke="black" d="M760.68,-760.25C732.72,-754.06 687.8,-744.13 654.34,-736.73"/>
<polygon fill="black" stroke="black" points="654.87,-733.26 644.35,-734.52 653.36,-740.1 654.87,-733.26"/>
</g>
<!-- complex -->
<g id="node34" class="node">
<title>complex</title>
<polygon fill="none" stroke="black" points="819.7,-676 755.7,-676 755.7,-640 819.7,-640 819.7,-676"/>
<text text-anchor="middle" x="787.7" y="-654.3" font-family="Times,serif" font-size="14.00">complex</text>
</g>
<!-- complex&#45;&gt;Hashable -->
<g id="edge35" class="edge">
<title>complex&#45;&gt;Hashable</title>
<path fill="none" stroke="black" d="M755.61,-647.12C744.01,-642.65 730.89,-637.09 719.45,-631 690.73,-615.72 660.28,-594.6 638.86,-578.83"/>
<polygon fill="black" stroke="black" points="640.95,-576.02 630.84,-572.86 636.77,-581.64 640.95,-576.02"/>
</g>
<!-- complex&#45;&gt;Complex -->
<g id="edge36" class="edge">
<title>complex&#45;&gt;Complex</title>
<path fill="none" stroke="black" d="M755.34,-659.81C655.05,-665.6 341.28,-683.71 215.76,-690.96"/>
<polygon fill="black" stroke="black" points="215.41,-687.47 205.63,-691.54 215.82,-694.46 215.41,-687.47"/>
</g>
<!-- list -->
<g id="node35" class="node">
<title>list</title>
<polygon fill="none" stroke="black" points="814.7,-298 760.7,-298 760.7,-262 814.7,-262 814.7,-298"/>
<text text-anchor="middle" x="787.7" y="-276.3" font-family="Times,serif" font-size="14.00">list</text>
</g>
<!-- list&#45;&gt;MutableSequnece -->
<g id="edge37" class="edge">
<title>list&#45;&gt;MutableSequnece</title>
<path fill="none" stroke="black" d="M760.68,-287.97C735.85,-295.57 697.63,-307.27 665.95,-316.98"/>
<polygon fill="black" stroke="black" points="664.89,-313.64 656.35,-319.92 666.94,-320.33 664.89,-313.64"/>
</g>
<!-- tuple -->
<g id="node36" class="node">
<title>tuple</title>
<polygon fill="none" stroke="black" points="814.7,-622 760.7,-622 760.7,-586 814.7,-586 814.7,-622"/>
<text text-anchor="middle" x="787.7" y="-600.3" font-family="Times,serif" font-size="14.00">tuple</text>
</g>
<!-- tuple&#45;&gt;Hashable -->
<g id="edge39" class="edge">
<title>tuple&#45;&gt;Hashable</title>
<path fill="none" stroke="black" d="M760.68,-597.06C733.24,-589.75 689.47,-578.09 656.22,-569.22"/>
<polygon fill="black" stroke="black" points="656.83,-565.76 646.27,-566.57 655.03,-572.53 656.83,-565.76"/>
</g>
<!-- tuple&#45;&gt;Sequence -->
<g id="edge38" class="edge">
<title>tuple&#45;&gt;Sequence</title>
<path fill="none" stroke="black" d="M760.61,-610.81C710.47,-622.19 599.89,-638.81 535.27,-584 484.63,-541.05 541.94,-489.87 499.27,-439 495.08,-434.01 489.79,-429.91 484.08,-426.54"/>
<polygon fill="black" stroke="black" points="485.37,-423.27 474.87,-421.85 482.19,-429.51 485.37,-423.27"/>
</g>
<!-- range -->
<g id="node37" class="node">
<title>range</title>
<polygon fill="none" stroke="black" points="814.7,-568 760.7,-568 760.7,-532 814.7,-532 814.7,-568"/>
<text text-anchor="middle" x="787.7" y="-546.3" font-family="Times,serif" font-size="14.00">range</text>
</g>
<!-- range&#45;&gt;Hashable -->
<g id="edge41" class="edge">
<title>range&#45;&gt;Hashable</title>
<path fill="none" stroke="black" d="M760.68,-551.03C735.09,-552.05 695.29,-553.63 663.07,-554.91"/>
<polygon fill="black" stroke="black" points="662.76,-551.42 652.9,-555.31 663.04,-558.41 662.76,-551.42"/>
</g>
<!-- range&#45;&gt;Sequence -->
<g id="edge40" class="edge">
<title>range&#45;&gt;Sequence</title>
<path fill="none" stroke="black" d="M760.33,-545.25C712.94,-535.95 611.25,-512.45 535.27,-470 516.83,-459.7 517.1,-450.3 499.27,-439 493.3,-435.22 486.73,-431.71 480.16,-428.55"/>
<polygon fill="black" stroke="black" points="481.19,-425.17 470.64,-424.19 478.27,-431.54 481.19,-425.17"/>
</g>
<!-- str -->
<g id="node38" class="node">
<title>str</title>
<polygon fill="none" stroke="black" points="814.7,-514 760.7,-514 760.7,-478 814.7,-478 814.7,-514"/>
<text text-anchor="middle" x="787.7" y="-492.3" font-family="Times,serif" font-size="14.00">str</text>
</g>
<!-- str&#45;&gt;Hashable -->
<g id="edge43" class="edge">
<title>str&#45;&gt;Hashable</title>
<path fill="none" stroke="black" d="M760.68,-505C732.34,-514.8 686.57,-530.64 652.97,-542.26"/>
<polygon fill="black" stroke="black" points="651.71,-538.99 643.41,-545.57 654,-545.61 651.71,-538.99"/>
</g>
<!-- str&#45;&gt;Sequence -->
<g id="edge42" class="edge">
<title>str&#45;&gt;Sequence</title>
<path fill="none" stroke="black" d="M760.51,-490.73C714.65,-481.38 616.93,-460.89 535.27,-440 518.15,-435.62 499.48,-430.34 483.14,-425.55"/>
<polygon fill="black" stroke="black" points="483.89,-422.12 473.3,-422.64 481.9,-428.83 483.89,-422.12"/>
</g>
<!-- bytes -->
<g id="node39" class="node">
<title>bytes</title>
<polygon fill="none" stroke="black" points="814.7,-406 760.7,-406 760.7,-370 814.7,-370 814.7,-406"/>
<text text-anchor="middle" x="787.7" y="-384.3" font-family="Times,serif" font-size="14.00">bytes</text>
</g>
<!-- bytes&#45;&gt;Hashable -->
<g id="edge45" class="edge">
<title>bytes&#45;&gt;Hashable</title>
<path fill="none" stroke="black" d="M760.44,-394.93C747.27,-399.27 731.58,-405.8 719.45,-415 677.47,-446.83 643.26,-498.75 624.94,-530.21"/>
<polygon fill="black" stroke="black" points="621.68,-528.85 619.77,-539.27 627.76,-532.32 621.68,-528.85"/>
</g>
<!-- bytes&#45;&gt;ByteString -->
<g id="edge44" class="edge">
<title>bytes&#45;&gt;ByteString</title>
<path fill="none" stroke="black" d="M760.68,-388C736.58,-388 699.87,-388 668.76,-388"/>
<polygon fill="black" stroke="black" points="668.46,-384.5 658.46,-388 668.46,-391.5 668.46,-384.5"/>
</g>
<!-- bytearray -->
<g id="node40" class="node">
<title>bytearray</title>
<polygon fill="none" stroke="black" points="821.7,-352 753.7,-352 753.7,-316 821.7,-316 821.7,-352"/>
<text text-anchor="middle" x="787.7" y="-330.3" font-family="Times,serif" font-size="14.00">bytearray</text>
</g>
<!-- bytearray&#45;&gt;MutableSequnece -->
<g id="edge47" class="edge">
<title>bytearray&#45;&gt;MutableSequnece</title>
<path fill="none" stroke="black" d="M753.53,-334C736.48,-334 714.85,-334 693.61,-334"/>
<polygon fill="black" stroke="black" points="693.57,-330.5 683.57,-334 693.57,-337.5 693.57,-330.5"/>
</g>
<!-- bytearray&#45;&gt;ByteString -->
<g id="edge46" class="edge">
<title>bytearray&#45;&gt;ByteString</title>
<path fill="none" stroke="black" d="M753.53,-344.16C726.37,-352.47 687.62,-364.34 657.28,-373.63"/>
<polygon fill="black" stroke="black" points="655.88,-370.4 647.34,-376.68 657.93,-377.09 655.88,-370.4"/>
</g>
<!-- memoryview -->
<g id="node41" class="node">
<title>memoryview</title>
<polygon fill="none" stroke="black" points="832.2,-460 743.2,-460 743.2,-424 832.2,-424 832.2,-460"/>
<text text-anchor="middle" x="787.7" y="-438.3" font-family="Times,serif" font-size="14.00">memoryview</text>
</g>
<!-- memoryview&#45;&gt;Hashable -->
<g id="edge49" class="edge">
<title>memoryview&#45;&gt;Hashable</title>
<path fill="none" stroke="black" d="M743.1,-457.3C735.04,-460.74 726.83,-464.67 719.45,-469 688.18,-487.33 656.36,-514.13 635.22,-533.33"/>
<polygon fill="black" stroke="black" points="632.66,-530.94 627.67,-540.28 637.4,-536.09 632.66,-530.94"/>
</g>
<!-- memoryview&#45;&gt;Sequence -->
<g id="edge48" class="edge">
<title>memoryview&#45;&gt;Sequence</title>
<path fill="none" stroke="black" d="M742.95,-438.23C678.93,-432.71 559.89,-422.46 491.17,-416.54"/>
<polygon fill="black" stroke="black" points="491.26,-413.03 481,-415.66 490.66,-420.01 491.26,-413.03"/>
</g>
<!-- set -->
<g id="node42" class="node">
<title>set</title>
<polygon fill="none" stroke="black" points="814.7,-136 760.7,-136 760.7,-100 814.7,-100 814.7,-136"/>
<text text-anchor="middle" x="787.7" y="-114.3" font-family="Times,serif" font-size="14.00">set</text>
</g>
<!-- set&#45;&gt;MutableSet -->
<g id="edge50" class="edge">
<title>set&#45;&gt;MutableSet</title>
<path fill="none" stroke="black" d="M760.68,-127.15C733.21,-136.81 689.37,-152.22 656.11,-163.91"/>
<polygon fill="black" stroke="black" points="654.86,-160.64 646.59,-167.26 657.19,-167.25 654.86,-160.64"/>
</g>
<!-- fronzenset -->
<g id="node43" class="node">
<title>fronzenset</title>
<polygon fill="none" stroke="black" points="824.2,-244 751.2,-244 751.2,-208 824.2,-208 824.2,-244"/>
<text text-anchor="middle" x="787.7" y="-222.3" font-family="Times,serif" font-size="14.00">fronzenset</text>
</g>
<!-- fronzenset&#45;&gt;Hashable -->
<g id="edge52" class="edge">
<title>fronzenset&#45;&gt;Hashable</title>
<path fill="none" stroke="black" d="M750.94,-233.3C739.39,-237.32 727.51,-243.51 719.45,-253 671.72,-309.23 708.54,-345.64 683.45,-415 668.2,-457.17 643.05,-502.73 626.59,-530.56"/>
<polygon fill="black" stroke="black" points="623.5,-528.92 621.37,-539.29 629.51,-532.51 623.5,-528.92"/>
</g>
<!-- fronzenset&#45;&gt;Set -->
<g id="edge51" class="edge">
<title>fronzenset&#45;&gt;Set</title>
<path fill="none" stroke="black" d="M751.03,-225.51C702.05,-224.33 611.37,-220.36 535.27,-207 513.82,-203.23 490.27,-196.72 471.78,-191.03"/>
<polygon fill="black" stroke="black" points="472.67,-187.64 462.08,-187.98 470.57,-194.32 472.67,-187.64"/>
</g>
<!-- dict -->
<g id="node44" class="node">
<title>dict</title>
<polygon fill="none" stroke="black" points="814.7,-190 760.7,-190 760.7,-154 814.7,-154 814.7,-190"/>
<text text-anchor="middle" x="787.7" y="-168.3" font-family="Times,serif" font-size="14.00">dict</text>
</g>
<!-- dict&#45;&gt;MutableMapping -->
<g id="edge53" class="edge">
<title>dict&#45;&gt;MutableMapping</title>
<path fill="none" stroke="black" d="M760.59,-181.04C747.89,-185.79 732.58,-192.07 719.45,-199 691.82,-213.59 662.49,-233.49 641.21,-248.83"/>
<polygon fill="black" stroke="black" points="638.92,-246.17 632.9,-254.88 643.05,-251.83 638.92,-246.17"/>
</g>
</g>
</svg>
