<?xml version="1.0" encoding="UTF-8" standalone="no"?>
<!DOCTYPE svg PUBLIC "-//W3C//DTD SVG 1.1//EN"
 "http://www.w3.org/Graphics/SVG/1.1/DTD/svg11.dtd">
<!-- Generated by graphviz version 2.48.0 (0)
 -->
<!-- Pages: 1 -->
<svg width="506pt" height="332pt"
 viewBox="0.00 0.00 506.24 332.00" xmlns="http://www.w3.org/2000/svg" xmlns:xlink="http://www.w3.org/1999/xlink">
<g id="graph0" class="graph" transform="scale(1 1) rotate(0) translate(4 328)">
<polygon fill="white" stroke="transparent" points="-4,4 -4,-328 502.24,-328 502.24,4 -4,4"/>
<!-- MutableMapping -->
<g id="node1" class="node">
<title>MutableMapping</title>
<ellipse fill="none" stroke="black" cx="425.45" cy="-90" rx="72.59" ry="18"/>
<text text-anchor="middle" x="425.45" y="-86.3" font-family="Times,serif" font-size="14.00">MutableMapping</text>
</g>
<!-- Mapping -->
<g id="node2" class="node">
<title>Mapping</title>
<ellipse fill="none" stroke="black" cx="389.45" cy="-162" rx="42.79" ry="18"/>
<text text-anchor="middle" x="389.45" y="-158.3" font-family="Times,serif" font-size="14.00">Mapping</text>
</g>
<!-- MutableMapping&#45;&gt;Mapping -->
<g id="edge1" class="edge">
<title>MutableMapping&#45;&gt;Mapping</title>
<path fill="none" stroke="black" d="M416.73,-107.95C412.53,-116.11 407.4,-126.09 402.73,-135.18"/>
<polygon fill="black" stroke="black" points="399.54,-133.72 398.08,-144.21 405.77,-136.92 399.54,-133.72"/>
</g>
<!-- Collection -->
<g id="node3" class="node">
<title>Collection</title>
<ellipse fill="none" stroke="black" cx="282.45" cy="-234" rx="47.39" ry="18"/>
<text text-anchor="middle" x="282.45" y="-230.3" font-family="Times,serif" font-size="14.00">Collection</text>
</g>
<!-- Mapping&#45;&gt;Collection -->
<g id="edge2" class="edge">
<title>Mapping&#45;&gt;Collection</title>
<path fill="none" stroke="black" d="M367.28,-177.5C351.85,-187.6 331.05,-201.2 313.91,-212.42"/>
<polygon fill="black" stroke="black" points="311.78,-209.63 305.33,-218.03 315.61,-215.49 311.78,-209.63"/>
</g>
<!-- Iterable -->
<g id="node4" class="node">
<title>Iterable</title>
<ellipse fill="none" stroke="black" cx="282.45" cy="-306" rx="37.89" ry="18"/>
<text text-anchor="middle" x="282.45" y="-302.3" font-family="Times,serif" font-size="14.00">Iterable</text>
</g>
<!-- Collection&#45;&gt;Iterable -->
<g id="edge3" class="edge">
<title>Collection&#45;&gt;Iterable</title>
<path fill="none" stroke="black" d="M282.45,-252.3C282.45,-260.02 282.45,-269.29 282.45,-277.89"/>
<polygon fill="black" stroke="black" points="278.95,-277.9 282.45,-287.9 285.95,-277.9 278.95,-277.9"/>
</g>
<!-- Set -->
<g id="node5" class="node">
<title>Set</title>
<ellipse fill="none" stroke="black" cx="70.45" cy="-162" rx="27" ry="18"/>
<text text-anchor="middle" x="70.45" y="-158.3" font-family="Times,serif" font-size="14.00">Set</text>
</g>
<!-- Set&#45;&gt;Collection -->
<g id="edge4" class="edge">
<title>Set&#45;&gt;Collection</title>
<path fill="none" stroke="black" d="M91.54,-173.6C96.38,-175.85 101.54,-178.12 106.45,-180 148.92,-196.32 198.68,-210.9 234.44,-220.62"/>
<polygon fill="black" stroke="black" points="233.57,-224.01 244.13,-223.23 235.39,-217.25 233.57,-224.01"/>
</g>
<!-- ItemsView -->
<g id="node6" class="node">
<title>ItemsView</title>
<ellipse fill="none" stroke="black" cx="162.45" cy="-90" rx="49.29" ry="18"/>
<text text-anchor="middle" x="162.45" y="-86.3" font-family="Times,serif" font-size="14.00">ItemsView</text>
</g>
<!-- ItemsView&#45;&gt;Set -->
<g id="edge6" class="edge">
<title>ItemsView&#45;&gt;Set</title>
<path fill="none" stroke="black" d="M142.03,-106.54C128.4,-116.91 110.37,-130.62 95.82,-141.69"/>
<polygon fill="black" stroke="black" points="93.56,-139.02 87.72,-147.86 97.79,-144.59 93.56,-139.02"/>
</g>
<!-- MappingView -->
<g id="node7" class="node">
<title>MappingView</title>
<ellipse fill="none" stroke="black" cx="177.45" cy="-162" rx="61.99" ry="18"/>
<text text-anchor="middle" x="177.45" y="-158.3" font-family="Times,serif" font-size="14.00">MappingView</text>
</g>
<!-- ItemsView&#45;&gt;MappingView -->
<g id="edge5" class="edge">
<title>ItemsView&#45;&gt;MappingView</title>
<path fill="none" stroke="black" d="M166.15,-108.3C167.81,-116.02 169.79,-125.29 171.64,-133.89"/>
<polygon fill="black" stroke="black" points="168.26,-134.85 173.78,-143.9 175.11,-133.38 168.26,-134.85"/>
</g>
<!-- KeysView -->
<g id="node8" class="node">
<title>KeysView</title>
<ellipse fill="none" stroke="black" cx="47.45" cy="-90" rx="47.39" ry="18"/>
<text text-anchor="middle" x="47.45" y="-86.3" font-family="Times,serif" font-size="14.00">KeysView</text>
</g>
<!-- KeysView&#45;&gt;Set -->
<g id="edge8" class="edge">
<title>KeysView&#45;&gt;Set</title>
<path fill="none" stroke="black" d="M53.01,-107.95C55.64,-115.94 58.84,-125.67 61.77,-134.6"/>
<polygon fill="black" stroke="black" points="58.48,-135.8 64.93,-144.21 65.13,-133.62 58.48,-135.8"/>
</g>
<!-- KeysView&#45;&gt;MappingView -->
<g id="edge7" class="edge">
<title>KeysView&#45;&gt;MappingView</title>
<path fill="none" stroke="black" d="M73.75,-105.17C92.88,-115.47 119.04,-129.55 140.3,-141"/>
<polygon fill="black" stroke="black" points="138.91,-144.23 149.38,-145.89 142.23,-138.06 138.91,-144.23"/>
</g>
<!-- ValuesView -->
<g id="node9" class="node">
<title>ValuesView</title>
<ellipse fill="none" stroke="black" cx="282.45" cy="-90" rx="52.79" ry="18"/>
<text text-anchor="middle" x="282.45" y="-86.3" font-family="Times,serif" font-size="14.00">ValuesView</text>
</g>
<!-- ValuesView&#45;&gt;Collection -->
<g id="edge10" class="edge">
<title>ValuesView&#45;&gt;Collection</title>
<path fill="none" stroke="black" d="M282.45,-108.13C282.45,-132.33 282.45,-176.79 282.45,-205.61"/>
<polygon fill="black" stroke="black" points="278.95,-205.81 282.45,-215.81 285.95,-205.81 278.95,-205.81"/>
</g>
<!-- ValuesView&#45;&gt;MappingView -->
<g id="edge9" class="edge">
<title>ValuesView&#45;&gt;MappingView</title>
<path fill="none" stroke="black" d="M259.4,-106.36C244.84,-116.07 225.79,-128.77 209.73,-139.48"/>
<polygon fill="black" stroke="black" points="207.54,-136.73 201.16,-145.19 211.42,-142.55 207.54,-136.73"/>
</g>
<!-- dict -->
<g id="node10" class="node">
<title>dict</title>
<polygon fill="none" stroke="black" points="452.45,-36 398.45,-36 398.45,0 452.45,0 452.45,-36"/>
<text text-anchor="middle" x="425.45" y="-14.3" font-family="Times,serif" font-size="14.00">dict</text>
</g>
<!-- dict&#45;&gt;MutableMapping -->
<g id="edge11" class="edge">
<title>dict&#45;&gt;MutableMapping</title>
<path fill="none" stroke="black" d="M425.45,-36.3C425.45,-44.02 425.45,-53.29 425.45,-61.89"/>
<polygon fill="black" stroke="black" points="421.95,-61.9 425.45,-71.9 428.95,-61.9 421.95,-61.9"/>
</g>
<!-- dict.items() -->
<g id="node11" class="node">
<title>dict.items()</title>
<polygon fill="none" stroke="black" points="202.45,-36 122.45,-36 122.45,0 202.45,0 202.45,-36"/>
<text text-anchor="middle" x="162.45" y="-14.3" font-family="Times,serif" font-size="14.00">dict.items()</text>
</g>
<!-- dict.items()&#45;&gt;ItemsView -->
<g id="edge12" class="edge">
<title>dict.items()&#45;&gt;ItemsView</title>
<path fill="none" stroke="black" d="M162.45,-36.3C162.45,-44.02 162.45,-53.29 162.45,-61.89"/>
<polygon fill="black" stroke="black" points="158.95,-61.9 162.45,-71.9 165.95,-61.9 158.95,-61.9"/>
</g>
<!-- dict.keys() -->
<g id="node12" class="node">
<title>dict.keys()</title>
<polygon fill="none" stroke="black" points="84.45,-36 10.45,-36 10.45,0 84.45,0 84.45,-36"/>
<text text-anchor="middle" x="47.45" y="-14.3" font-family="Times,serif" font-size="14.00">dict.keys()</text>
</g>
<!-- dict.keys()&#45;&gt;KeysView -->
<g id="edge13" class="edge">
<title>dict.keys()&#45;&gt;KeysView</title>
<path fill="none" stroke="black" d="M47.45,-36.3C47.45,-44.02 47.45,-53.29 47.45,-61.89"/>
<polygon fill="black" stroke="black" points="43.95,-61.9 47.45,-71.9 50.95,-61.9 43.95,-61.9"/>
</g>
<!-- dict.values() -->
<g id="node13" class="node">
<title>dict.values()</title>
<polygon fill="none" stroke="black" points="324.45,-36 240.45,-36 240.45,0 324.45,0 324.45,-36"/>
<text text-anchor="middle" x="282.45" y="-14.3" font-family="Times,serif" font-size="14.00">dict.values()</text>
</g>
<!-- dict.values()&#45;&gt;ValuesView -->
<g id="edge14" class="edge">
<title>dict.values()&#45;&gt;ValuesView</title>
<path fill="none" stroke="black" d="M282.45,-36.3C282.45,-44.02 282.45,-53.29 282.45,-61.89"/>
<polygon fill="black" stroke="black" points="278.95,-61.9 282.45,-71.9 285.95,-61.9 278.95,-61.9"/>
</g>
</g>
</svg>
