<?xml version="1.0" encoding="UTF-8" standalone="no"?>
<!DOCTYPE svg PUBLIC "-//W3C//DTD SVG 1.1//EN"
 "http://www.w3.org/Graphics/SVG/1.1/DTD/svg11.dtd">
<!-- Generated by graphviz version 2.48.0 (0)
 -->
<!-- Pages: 1 -->
<svg width="552pt" height="260pt"
 viewBox="0.00 0.00 552.09 260.00" xmlns="http://www.w3.org/2000/svg" xmlns:xlink="http://www.w3.org/1999/xlink">
<g id="graph0" class="graph" transform="scale(1 1) rotate(0) translate(4 256)">
<polygon fill="white" stroke="transparent" points="-4,4 -4,-256 548.09,-256 548.09,4 -4,4"/>
<!-- MutableSequence -->
<g id="node1" class="node">
<title>MutableSequence</title>
<ellipse fill="none" stroke="black" cx="470" cy="-90" rx="74.19" ry="18"/>
<text text-anchor="middle" x="470" y="-86.3" font-family="Times,serif" font-size="14.00">MutableSequence</text>
</g>
<!-- Sequence -->
<g id="node2" class="node">
<title>Sequence</title>
<ellipse fill="none" stroke="black" cx="207" cy="-162" rx="44.39" ry="18"/>
<text text-anchor="middle" x="207" y="-158.3" font-family="Times,serif" font-size="14.00">Sequence</text>
</g>
<!-- MutableSequence&#45;&gt;Sequence -->
<g id="edge1" class="edge">
<title>MutableSequence&#45;&gt;Sequence</title>
<path fill="none" stroke="black" d="M422.07,-103.76C373.93,-116.57 300.29,-136.17 252.89,-148.79"/>
<polygon fill="black" stroke="black" points="251.96,-145.41 243.19,-151.37 253.76,-152.18 251.96,-145.41"/>
</g>
<!-- Iterable -->
<g id="node3" class="node">
<title>Iterable</title>
<ellipse fill="none" stroke="black" cx="207" cy="-234" rx="37.89" ry="18"/>
<text text-anchor="middle" x="207" y="-230.3" font-family="Times,serif" font-size="14.00">Iterable</text>
</g>
<!-- Sequence&#45;&gt;Iterable -->
<g id="edge2" class="edge">
<title>Sequence&#45;&gt;Iterable</title>
<path fill="none" stroke="black" d="M207,-180.3C207,-188.02 207,-197.29 207,-205.89"/>
<polygon fill="black" stroke="black" points="203.5,-205.9 207,-215.9 210.5,-205.9 203.5,-205.9"/>
</g>
<!-- tuple -->
<g id="node4" class="node">
<title>tuple</title>
<polygon fill="none" stroke="black" points="54,-108 0,-108 0,-72 54,-72 54,-108"/>
<text text-anchor="middle" x="27" y="-86.3" font-family="Times,serif" font-size="14.00">tuple</text>
</g>
<!-- tuple&#45;&gt;Sequence -->
<g id="edge3" class="edge">
<title>tuple&#45;&gt;Sequence</title>
<path fill="none" stroke="black" d="M54.01,-104.07C57.03,-105.43 60.07,-106.77 63,-108 96.63,-122.09 135.46,-136.27 164.31,-146.41"/>
<polygon fill="black" stroke="black" points="163.49,-149.82 174.08,-149.82 165.79,-143.22 163.49,-149.82"/>
</g>
<!-- str -->
<g id="node5" class="node">
<title>str</title>
<polygon fill="none" stroke="black" points="126,-108 72,-108 72,-72 126,-72 126,-108"/>
<text text-anchor="middle" x="99" y="-86.3" font-family="Times,serif" font-size="14.00">str</text>
</g>
<!-- str&#45;&gt;Sequence -->
<g id="edge4" class="edge">
<title>str&#45;&gt;Sequence</title>
<path fill="none" stroke="black" d="M125.42,-108.12C140.7,-118.03 160.01,-130.54 176,-140.91"/>
<polygon fill="black" stroke="black" points="174.21,-143.92 184.5,-146.42 178.01,-138.04 174.21,-143.92"/>
</g>
<!-- bytes -->
<g id="node6" class="node">
<title>bytes</title>
<polygon fill="none" stroke="black" points="198,-108 144,-108 144,-72 198,-72 198,-108"/>
<text text-anchor="middle" x="171" y="-86.3" font-family="Times,serif" font-size="14.00">bytes</text>
</g>
<!-- bytes&#45;&gt;Sequence -->
<g id="edge5" class="edge">
<title>bytes&#45;&gt;Sequence</title>
<path fill="none" stroke="black" d="M179.9,-108.3C184,-116.27 188.95,-125.9 193.49,-134.74"/>
<polygon fill="black" stroke="black" points="190.52,-136.6 198.2,-143.9 196.74,-133.4 190.52,-136.6"/>
</g>
<!-- range -->
<g id="node7" class="node">
<title>range</title>
<polygon fill="none" stroke="black" points="270,-108 216,-108 216,-72 270,-72 270,-108"/>
<text text-anchor="middle" x="243" y="-86.3" font-family="Times,serif" font-size="14.00">range</text>
</g>
<!-- range&#45;&gt;Sequence -->
<g id="edge6" class="edge">
<title>range&#45;&gt;Sequence</title>
<path fill="none" stroke="black" d="M234.1,-108.3C230,-116.27 225.05,-125.9 220.51,-134.74"/>
<polygon fill="black" stroke="black" points="217.26,-133.4 215.8,-143.9 223.48,-136.6 217.26,-133.4"/>
</g>
<!-- list -->
<g id="node8" class="node">
<title>list</title>
<polygon fill="none" stroke="black" points="457,-36 403,-36 403,0 457,0 457,-36"/>
<text text-anchor="middle" x="430" y="-14.3" font-family="Times,serif" font-size="14.00">list</text>
</g>
<!-- list&#45;&gt;MutableSequence -->
<g id="edge8" class="edge">
<title>list&#45;&gt;MutableSequence</title>
<path fill="none" stroke="black" d="M439.89,-36.3C444.49,-44.36 450.06,-54.11 455.15,-63.02"/>
<polygon fill="black" stroke="black" points="452.23,-64.95 460.23,-71.9 458.3,-61.48 452.23,-64.95"/>
</g>
<!-- bytearray -->
<g id="node9" class="node">
<title>bytearray</title>
<polygon fill="none" stroke="black" points="543,-36 475,-36 475,0 543,0 543,-36"/>
<text text-anchor="middle" x="509" y="-14.3" font-family="Times,serif" font-size="14.00">bytearray</text>
</g>
<!-- bytearray&#45;&gt;MutableSequence -->
<g id="edge9" class="edge">
<title>bytearray&#45;&gt;MutableSequence</title>
<path fill="none" stroke="black" d="M499.36,-36.3C494.87,-44.36 489.44,-54.11 484.48,-63.02"/>
<polygon fill="black" stroke="black" points="481.34,-61.46 479.53,-71.9 487.45,-64.86 481.34,-61.46"/>
</g>
<!-- memoryview -->
<g id="node10" class="node">
<title>memoryview</title>
<polygon fill="none" stroke="black" points="377.5,-108 288.5,-108 288.5,-72 377.5,-72 377.5,-108"/>
<text text-anchor="middle" x="333" y="-86.3" font-family="Times,serif" font-size="14.00">memoryview</text>
</g>
<!-- memoryview&#45;&gt;Sequence -->
<g id="edge7" class="edge">
<title>memoryview&#45;&gt;Sequence</title>
<path fill="none" stroke="black" d="M302.18,-108.12C283.64,-118.42 260.03,-131.54 240.97,-142.13"/>
<polygon fill="black" stroke="black" points="239.05,-139.19 232.01,-147.1 242.45,-145.31 239.05,-139.19"/>
</g>
</g>
</svg>
