<?xml version="1.0" encoding="UTF-8" standalone="no"?>
<!DOCTYPE svg PUBLIC "-//W3C//DTD SVG 1.1//EN"
 "http://www.w3.org/Graphics/SVG/1.1/DTD/svg11.dtd">
<!-- Generated by graphviz version 2.48.0 (0)
 -->
<!-- Pages: 1 -->
<svg width="202pt" height="260pt"
 viewBox="0.00 0.00 202.50 260.00" xmlns="http://www.w3.org/2000/svg" xmlns:xlink="http://www.w3.org/1999/xlink">
<g id="graph0" class="graph" transform="scale(1 1) rotate(0) translate(4 256)">
<polygon fill="white" stroke="transparent" points="-4,4 -4,-256 198.5,-256 198.5,4 -4,4"/>
<!-- MutableSet -->
<g id="node1" class="node">
<title>MutableSet</title>
<ellipse fill="none" stroke="black" cx="142.5" cy="-90" rx="51.99" ry="18"/>
<text text-anchor="middle" x="142.5" y="-86.3" font-family="Times,serif" font-size="14.00">MutableSet</text>
</g>
<!-- Set -->
<g id="node2" class="node">
<title>Set</title>
<ellipse fill="none" stroke="black" cx="89.5" cy="-162" rx="27" ry="18"/>
<text text-anchor="middle" x="89.5" y="-158.3" font-family="Times,serif" font-size="14.00">Set</text>
</g>
<!-- MutableSet&#45;&gt;Set -->
<g id="edge1" class="edge">
<title>MutableSet&#45;&gt;Set</title>
<path fill="none" stroke="black" d="M129.94,-107.59C123.22,-116.47 114.82,-127.56 107.42,-137.33"/>
<polygon fill="black" stroke="black" points="104.49,-135.4 101.24,-145.49 110.07,-139.63 104.49,-135.4"/>
</g>
<!-- Iterable -->
<g id="node3" class="node">
<title>Iterable</title>
<ellipse fill="none" stroke="black" cx="89.5" cy="-234" rx="37.89" ry="18"/>
<text text-anchor="middle" x="89.5" y="-230.3" font-family="Times,serif" font-size="14.00">Iterable</text>
</g>
<!-- Set&#45;&gt;Iterable -->
<g id="edge2" class="edge">
<title>Set&#45;&gt;Iterable</title>
<path fill="none" stroke="black" d="M89.5,-180.3C89.5,-188.02 89.5,-197.29 89.5,-205.89"/>
<polygon fill="black" stroke="black" points="86,-205.9 89.5,-215.9 93,-205.9 86,-205.9"/>
</g>
<!-- set -->
<g id="node4" class="node">
<title>set</title>
<polygon fill="none" stroke="black" points="169.5,-36 115.5,-36 115.5,0 169.5,0 169.5,-36"/>
<text text-anchor="middle" x="142.5" y="-14.3" font-family="Times,serif" font-size="14.00">set</text>
</g>
<!-- set&#45;&gt;MutableSet -->
<g id="edge3" class="edge">
<title>set&#45;&gt;MutableSet</title>
<path fill="none" stroke="black" d="M142.5,-36.3C142.5,-44.02 142.5,-53.29 142.5,-61.89"/>
<polygon fill="black" stroke="black" points="139,-61.9 142.5,-71.9 146,-61.9 139,-61.9"/>
</g>
<!-- fronzenset -->
<g id="node5" class="node">
<title>fronzenset</title>
<polygon fill="none" stroke="black" points="73,-108 0,-108 0,-72 73,-72 73,-108"/>
<text text-anchor="middle" x="36.5" y="-86.3" font-family="Times,serif" font-size="14.00">fronzenset</text>
</g>
<!-- fronzenset&#45;&gt;Set -->
<g id="edge4" class="edge">
<title>fronzenset&#45;&gt;Set</title>
<path fill="none" stroke="black" d="M49.6,-108.3C56.17,-116.98 64.24,-127.63 71.39,-137.08"/>
<polygon fill="black" stroke="black" points="68.81,-139.47 77.63,-145.33 74.39,-135.24 68.81,-139.47"/>
</g>
</g>
</svg>
